<?xml version="1.0" standalone="no"?>
<!DOCTYPE svg PUBLIC "-//W3C//DTD SVG 20010904//EN"
 "http://www.w3.org/TR/2001/REC-SVG-20010904/DTD/svg10.dtd">
<svg version="1.0" xmlns="http://www.w3.org/2000/svg"
 width="260.000000pt" height="260.000000pt" viewBox="0 0 260.000000 260.000000"
 preserveAspectRatio="xMidYMid meet">
<metadata>
Created by potrace 1.14, written by Peter Selinger 2001-2017
</metadata>
<g transform="translate(0.000000,260.000000) scale(0.100000,-0.100000)"
fill="#000000" stroke="none">
<path d="M0 1300 l0 -1300 1300 0 1300 0 0 1300 0 1300 -1300 0 -1300 0 0
-1300z m915 1011 c152 -52 268 -153 346 -303 l41 -81 21 49 c31 75 103 179
154 224 62 54 191 117 278 135 188 39 387 -9 518 -126 139 -124 176 -272 115
-469 -52 -167 -141 -292 -430 -602 -371 -399 -541 -633 -629 -865 -13 -35 -27
-63 -30 -63 -3 0 -12 19 -19 43 -21 71 -96 222 -153 309 -89 136 -214 287
-516 622 -281 313 -343 394 -397 523 -25 61 -28 80 -29 183 0 109 2 119 31
181 109 229 421 336 699 240z"/>
</g>
</svg>
