<?xml version="1.0" standalone="no"?>
<!DOCTYPE svg PUBLIC "-//W3C//DTD SVG 20010904//EN"
 "http://www.w3.org/TR/2001/REC-SVG-20010904/DTD/svg10.dtd">
<svg version="1.0" xmlns="http://www.w3.org/2000/svg"
 width="260.000000pt" height="260.000000pt" viewBox="0 0 260.000000 260.000000"
 preserveAspectRatio="xMidYMid meet">
<metadata>
Created by potrace 1.14, written by Peter Selinger 2001-2017
</metadata>
<g transform="translate(0.000000,260.000000) scale(0.100000,-0.100000)"
fill="#000000" stroke="none">
<path d="M0 1300 l0 -1300 1300 0 1300 0 0 1300 0 1300 -1300 0 -1300 0 0
-1300z m1153 439 c32 -72 57 -133 55 -135 -3 -2 -170 -73 -373 -158 l-369
-154 35 -14 c19 -8 183 -75 364 -148 182 -73 334 -136 338 -140 8 -7 -102
-271 -114 -274 -3 0 -218 91 -477 203 l-472 204 0 167 0 168 243 105 c133 58
346 151 472 206 127 55 232 101 235 101 3 0 31 -59 63 -131z m742 -39 c204
-89 412 -179 463 -202 l92 -40 0 -168 0 -167 -466 -202 c-257 -111 -471 -203
-477 -204 -13 -3 -130 265 -120 273 5 4 168 71 363 150 195 78 358 145 362
149 4 3 -159 75 -363 160 -203 85 -369 155 -369 156 0 5 92 210 107 238 8 16
20 26 26 24 7 -3 179 -78 382 -167z"/>
</g>
</svg>
