<?xml version="1.0" encoding="UTF-8" standalone="no"?>
<!DOCTYPE svg PUBLIC "-//W3C//DTD SVG 1.1//EN" "http://www.w3.org/Graphics/SVG/1.1/DTD/svg11.dtd">
<svg width="100%" height="100%" viewBox="0 0 1200 700" version="1.1" xmlns="http://www.w3.org/2000/svg" xmlns:xlink="http://www.w3.org/1999/xlink" xml:space="preserve" xmlns:serif="http://www.serif.com/" style="fill-rule:evenodd;clip-rule:evenodd;stroke-linecap:round;stroke-linejoin:round;stroke-miterlimit:1.5;">
    <g transform="matrix(1,0,0,1,-4.54747e-13,-3231.06)">
        <g id="kerning_overshot" transform="matrix(1.5,0,0,1,4.54747e-13,3231.06)">
            <rect x="0" y="0" width="800" height="700" style="fill:none;"/>
            <clipPath id="_clip1">
                <rect x="0" y="0" width="800" height="700"/>
            </clipPath>
            <g clip-path="url(#_clip1)">
                <g id="grid" transform="matrix(0.666667,0,0,1,0,0)">
                    <g id="bg" transform="matrix(1.5,0,0,1,0,0)">
                        <rect x="0" y="0" width="800" height="700" style="fill:rgb(239,241,245);"/>
                    </g>
                    <g transform="matrix(1,0,0,1,-861.828,2)">
                        <path d="M961.828,0L961.828,700" style="fill:none;stroke:rgb(204,208,218);stroke-width:1px;"/>
                    </g>
                    <g transform="matrix(1,0,0,1,-761.828,0)">
                        <path d="M961.828,0L961.828,700" style="fill:none;stroke:rgb(204,208,218);stroke-width:1px;"/>
                    </g>
                    <g transform="matrix(1,0,0,1,-661.828,0)">
                        <path d="M961.828,0L961.828,700" style="fill:none;stroke:rgb(204,208,218);stroke-width:1px;"/>
                    </g>
                    <g transform="matrix(1,0,0,1,-561.828,0)">
                        <path d="M961.828,0L961.828,700" style="fill:none;stroke:rgb(204,208,218);stroke-width:1px;"/>
                    </g>
                    <g transform="matrix(1,0,0,1,-461.828,5.68434e-14)">
                        <path d="M961.828,0L961.828,700" style="fill:none;stroke:rgb(204,208,218);stroke-width:1px;"/>
                    </g>
                    <g transform="matrix(1,0,0,1,-361.828,5.68434e-14)">
                        <path d="M961.828,0L961.828,700" style="fill:none;stroke:rgb(204,208,218);stroke-width:1px;"/>
                    </g>
                    <g transform="matrix(1,0,0,1,-261.828,0)">
                        <path d="M961.828,0L961.828,700" style="fill:none;stroke:rgb(204,208,218);stroke-width:1px;"/>
                    </g>
                    <g transform="matrix(1,0,0,1,-161.828,0)">
                        <path d="M961.828,0L961.828,700" style="fill:none;stroke:rgb(204,208,218);stroke-width:1px;"/>
                    </g>
                    <g transform="matrix(1,0,0,1,-61.8281,0)">
                        <path d="M961.828,0L961.828,700" style="fill:none;stroke:rgb(204,208,218);stroke-width:1px;"/>
                    </g>
                    <g transform="matrix(1,0,0,1,38.1719,10)">
                        <path d="M961.828,0L961.828,700" style="fill:none;stroke:rgb(204,208,218);stroke-width:1px;"/>
                    </g>
                    <g transform="matrix(1,0,0,1,138.172,0)">
                        <path d="M961.828,0L961.828,700" style="fill:none;stroke:rgb(204,208,218);stroke-width:1px;"/>
                    </g>
                    <g transform="matrix(6.12323e-17,1,-1.71429,1.0497e-16,1200,-861.828)">
                        <path d="M961.828,0L961.828,700" style="fill:none;stroke:rgb(204,208,218);stroke-width:0.71px;"/>
                    </g>
                    <g transform="matrix(6.12323e-17,1,-1.71429,1.0497e-16,1200,-761.828)">
                        <path d="M961.828,0L961.828,700" style="fill:none;stroke:rgb(204,208,218);stroke-width:0.71px;"/>
                    </g>
                    <g transform="matrix(6.12323e-17,1,-1.71429,1.0497e-16,1200,-661.828)">
                        <path d="M961.828,0L961.828,700" style="fill:none;stroke:rgb(204,208,218);stroke-width:0.71px;"/>
                    </g>
                    <g transform="matrix(6.12323e-17,1,-1.71429,1.0497e-16,1200,-561.828)">
                        <path d="M961.828,0L961.828,700" style="fill:none;stroke:rgb(204,208,218);stroke-width:0.71px;"/>
                    </g>
                    <g transform="matrix(6.12323e-17,1,-1.71429,1.0497e-16,1200,-461.828)">
                        <path d="M961.828,0L961.828,700" style="fill:none;stroke:rgb(204,208,218);stroke-width:0.71px;"/>
                    </g>
                    <g transform="matrix(6.12323e-17,1,-1.71429,1.0497e-16,1200,-361.828)">
                        <path d="M961.828,0L961.828,700" style="fill:none;stroke:rgb(204,208,218);stroke-width:0.71px;"/>
                    </g>
                </g>
                <g transform="matrix(0.666667,0,0,1,-1748.58,-1576.51)">
                    <path d="M3122.87,2176.51L2722.87,2176.51L2722.87,1676.51L2822.87,1676.51L2822.87,2076.51L3122.87,2076.51L3122.87,2176.51Z" style="fill:rgb(204,208,218);"/>
                </g>
                <g transform="matrix(0.666667,0,0,1,-1748.58,-1576.51)">
                    <path d="M3322.87,2076.51L3322.87,1876.51L3422.87,1876.51L3422.87,2076.51L3322.87,2076.51ZM3422.87,1876.51L3422.87,1676.51L3522.87,1676.51L3522.87,1876.51L3422.87,1876.51ZM3122.87,1876.51L3022.87,1876.51L3022.87,1676.51L3122.87,1676.51L3122.87,1876.51ZM3122.87,1876.51L3222.87,1876.51L3222.87,2076.51L3122.87,2076.51L3122.87,1876.51ZM3222.87,2076.51L3322.87,2076.51L3322.87,2176.51L3222.87,2176.51L3222.87,2076.51Z" style="fill:rgb(204,208,218);"/>
                </g>
                <g transform="matrix(0.471405,0.707107,-0.471405,0.707107,1611.34,-2725.16)">
                    <path d="M920,3641.06L900,3641.06L900,3631.06L920,3631.06L920,3611.06L930,3611.06L930,3631.06L950,3631.06L950,3641.06L930,3641.06L930,3661.06L920,3661.06L920,3641.06Z" style="fill:rgb(210,15,57);"/>
                </g>
            </g>
        </g>
    </g>
</svg>
