<?xml version="1.0" encoding="UTF-8" standalone="no"?>
<!DOCTYPE svg PUBLIC "-//W3C//DTD SVG 1.1//EN" "http://www.w3.org/Graphics/SVG/1.1/DTD/svg11.dtd">
<svg width="100%" height="100%" viewBox="0 0 1200 500" version="1.1" xmlns="http://www.w3.org/2000/svg" xmlns:xlink="http://www.w3.org/1999/xlink" xml:space="preserve" xmlns:serif="http://www.serif.com/" style="fill-rule:evenodd;clip-rule:evenodd;stroke-linejoin:round;stroke-miterlimit:2;">
    <g transform="matrix(1,0,0,1,-11.2837,0)">
        <g id="kerning_example" transform="matrix(1.5,0,0,0.714286,11.2837,0)">
            <rect x="0" y="0" width="800" height="700" style="fill:none;"/>
            <g transform="matrix(0.666667,0,0,1.4,100.295,-5566.09)">
                <path d="M179.557,4055.78L179.557,4015.78L159.557,4015.78L159.557,4055.78L179.557,4055.78ZM259.557,4155.78L259.557,4115.78L239.557,4115.78L239.557,4155.78L259.557,4155.78ZM219.557,4195.78L239.557,4195.78L239.557,4155.78L219.557,4155.78L219.557,4195.78ZM279.557,4055.78L299.557,4055.78L299.557,4015.78L279.557,4015.78L279.557,4055.78ZM219.557,4155.78L219.557,4115.78L199.557,4115.78L199.557,4155.78L219.557,4155.78ZM259.557,4115.78L279.557,4115.78L279.557,4055.78L259.557,4055.78L259.557,4115.78ZM179.557,4115.78L199.557,4115.78L199.557,4055.78L179.557,4055.78L179.557,4115.78Z" style="fill:rgb(76,79,105);fill-rule:nonzero;"/>
                <g transform="matrix(1,0,0,1,20,0)">
                    <path d="M319.557,4175.78L319.557,4195.78L399.557,4195.78L399.557,4075.78L379.557,4075.78L379.557,4115.78L319.557,4115.78L319.557,4135.78L379.557,4135.78L379.557,4175.78L319.557,4175.78ZM379.557,4055.78L319.557,4055.78L319.557,4075.78L379.557,4075.78L379.557,4055.78ZM319.557,4175.78L319.557,4135.78L299.557,4135.78L299.557,4175.78L319.557,4175.78ZM319.557,4095.78L319.557,4075.78L299.557,4075.78L299.557,4095.78L319.557,4095.78Z" style="fill:rgb(76,79,105);fill-rule:nonzero;"/>
                </g>
                <g transform="matrix(1,0,0,1,20,0)">
                    <path d="M419.557,4175.78L439.557,4175.78L439.557,4055.78L419.557,4055.78L419.557,4175.78ZM499.557,4175.78L519.557,4175.78L519.557,4055.78L499.557,4055.78L499.557,4175.78ZM499.557,4195.78L499.557,4175.78L439.557,4175.78L439.557,4195.78L499.557,4195.78Z" style="fill:rgb(76,79,105);fill-rule:nonzero;"/>
                </g>
                <g transform="matrix(1,0,0,1,20,0)">
                    <path d="M599.557,4195.78L599.557,4175.78L559.557,4175.78L559.557,4195.78L599.557,4195.78ZM539.557,4175.78L559.557,4175.78L559.557,4015.78L539.557,4015.78L539.557,4175.78Z" style="fill:rgb(76,79,105);fill-rule:nonzero;"/>
                </g>
                <g transform="matrix(1,0,0,1,40,0)">
                    <path d="M699.557,4055.78L639.557,4055.78L639.557,4015.78L619.557,4015.78L619.557,4055.78L599.557,4055.78L599.557,4075.78L619.557,4075.78L619.557,4175.78L639.557,4175.78L639.557,4075.78L699.557,4075.78L699.557,4055.78ZM699.557,4195.78L699.557,4175.78L639.557,4175.78L639.557,4195.78L699.557,4195.78Z" style="fill:rgb(76,79,105);fill-rule:nonzero;"/>
                </g>
            </g>
            <g transform="matrix(0.666667,0,0,1.4,100.295,-5258.09)">
                <path d="M179.557,4055.78L179.557,4015.78L159.557,4015.78L159.557,4055.78L179.557,4055.78ZM199.557,4115.78L199.557,4055.78L179.557,4055.78L179.557,4115.78L199.557,4115.78ZM199.557,4155.78L219.557,4155.78L219.557,4115.78L199.557,4115.78L199.557,4155.78ZM279.557,4055.78L299.557,4055.78L299.557,4015.78L279.557,4015.78L279.557,4055.78ZM239.557,4195.78L239.557,4155.78L219.557,4155.78L219.557,4195.78L239.557,4195.78ZM279.557,4115.78L279.557,4055.78L259.557,4055.78L259.557,4115.78L279.557,4115.78ZM259.557,4155.78L259.557,4115.78L239.557,4115.78L239.557,4155.78L259.557,4155.78Z" style="fill:rgb(76,79,105);fill-rule:nonzero;"/>
                <path d="M399.557,4195.78L399.557,4075.78L379.557,4075.78L379.557,4115.78L319.557,4115.78L319.557,4135.78L379.557,4135.78L379.557,4175.78L319.557,4175.78L319.557,4195.78L399.557,4195.78ZM319.557,4175.78L319.557,4135.78L299.557,4135.78L299.557,4175.78L319.557,4175.78ZM379.557,4075.78L379.557,4055.78L319.557,4055.78L319.557,4075.78L379.557,4075.78ZM319.557,4095.78L319.557,4075.78L299.557,4075.78L299.557,4095.78L319.557,4095.78Z" style="fill:rgb(76,79,105);fill-rule:nonzero;"/>
                <path d="M499.557,4175.78L519.557,4175.78L519.557,4055.78L499.557,4055.78L499.557,4175.78ZM499.557,4195.78L499.557,4175.78L439.557,4175.78L439.557,4195.78L499.557,4195.78ZM419.557,4175.78L439.557,4175.78L439.557,4055.78L419.557,4055.78L419.557,4175.78Z" style="fill:rgb(76,79,105);fill-rule:nonzero;"/>
                <path d="M539.557,4175.78L559.557,4175.78L559.557,4015.78L539.557,4015.78L539.557,4175.78ZM599.557,4175.78L559.557,4175.78L559.557,4195.78L599.557,4195.78L599.557,4175.78Z" style="fill:rgb(76,79,105);fill-rule:nonzero;"/>
                <path d="M619.557,4175.78L639.557,4175.78L639.557,4075.78L699.557,4075.78L699.557,4055.78L639.557,4055.78L639.557,4015.78L619.557,4015.78L619.557,4055.78L599.557,4055.78L599.557,4075.78L619.557,4075.78L619.557,4175.78ZM699.557,4195.78L699.557,4175.78L639.557,4175.78L639.557,4195.78L699.557,4195.78Z" style="fill:rgb(76,79,105);fill-rule:nonzero;"/>
            </g>
        </g>
    </g>
</svg>
