<?xml version="1.0" encoding="UTF-8" standalone="no"?>
<!DOCTYPE svg PUBLIC "-//W3C//DTD SVG 1.1//EN" "http://www.w3.org/Graphics/SVG/1.1/DTD/svg11.dtd">
<svg width="100%" height="100%" viewBox="0 0 1200 700" version="1.1" xmlns="http://www.w3.org/2000/svg" xmlns:xlink="http://www.w3.org/1999/xlink" xml:space="preserve" xmlns:serif="http://www.serif.com/" style="fill-rule:evenodd;clip-rule:evenodd;stroke-linecap:round;stroke-linejoin:round;stroke-miterlimit:1.5;">
    <g transform="matrix(1,0,0,1,-1311.76,-1571.06)">
        <g id="multi_contour" transform="matrix(1.5,0,0,1,1311.76,1571.06)">
            <rect x="0" y="0" width="800" height="700" style="fill:none;"/>
            <clipPath id="_clip1">
                <rect x="0" y="0" width="800" height="700"/>
            </clipPath>
            <g clip-path="url(#_clip1)">
                <g id="grid" transform="matrix(0.666667,0,0,1,0,0)">
                    <g id="bg" transform="matrix(1.5,0,0,1,0,0)">
                        <rect x="0" y="0" width="800" height="700" style="fill:rgb(239,241,245);"/>
                    </g>
                    <g transform="matrix(1,0,0,1,-861.828,2)">
                        <path d="M961.828,0L961.828,700" style="fill:none;stroke:rgb(204,208,218);stroke-width:1px;"/>
                    </g>
                    <g transform="matrix(1,0,0,1,-761.828,0)">
                        <path d="M961.828,0L961.828,700" style="fill:none;stroke:rgb(204,208,218);stroke-width:1px;"/>
                    </g>
                    <g transform="matrix(1,0,0,1,-661.828,0)">
                        <path d="M961.828,0L961.828,700" style="fill:none;stroke:rgb(204,208,218);stroke-width:1px;"/>
                    </g>
                    <g transform="matrix(1,0,0,1,-561.828,0)">
                        <path d="M961.828,0L961.828,700" style="fill:none;stroke:rgb(204,208,218);stroke-width:1px;"/>
                    </g>
                    <g transform="matrix(1,0,0,1,-461.828,5.68434e-14)">
                        <path d="M961.828,0L961.828,700" style="fill:none;stroke:rgb(204,208,218);stroke-width:1px;"/>
                    </g>
                    <g transform="matrix(1,0,0,1,-361.828,5.68434e-14)">
                        <path d="M961.828,0L961.828,700" style="fill:none;stroke:rgb(204,208,218);stroke-width:1px;"/>
                    </g>
                    <g transform="matrix(1,0,0,1,-261.828,0)">
                        <path d="M961.828,0L961.828,700" style="fill:none;stroke:rgb(204,208,218);stroke-width:1px;"/>
                    </g>
                    <g transform="matrix(1,0,0,1,-161.828,0)">
                        <path d="M961.828,0L961.828,700" style="fill:none;stroke:rgb(204,208,218);stroke-width:1px;"/>
                    </g>
                    <g transform="matrix(1,0,0,1,-61.8281,0)">
                        <path d="M961.828,0L961.828,700" style="fill:none;stroke:rgb(204,208,218);stroke-width:1px;"/>
                    </g>
                    <g transform="matrix(1,0,0,1,38.1719,10)">
                        <path d="M961.828,0L961.828,700" style="fill:none;stroke:rgb(204,208,218);stroke-width:1px;"/>
                    </g>
                    <g transform="matrix(1,0,0,1,138.172,0)">
                        <path d="M961.828,0L961.828,700" style="fill:none;stroke:rgb(204,208,218);stroke-width:1px;"/>
                    </g>
                    <g transform="matrix(6.12323e-17,1,-1.71429,1.0497e-16,1200,-861.828)">
                        <path d="M961.828,0L961.828,700" style="fill:none;stroke:rgb(204,208,218);stroke-width:0.71px;"/>
                    </g>
                    <g transform="matrix(6.12323e-17,1,-1.71429,1.0497e-16,1200,-761.828)">
                        <path d="M961.828,0L961.828,700" style="fill:none;stroke:rgb(204,208,218);stroke-width:0.71px;"/>
                    </g>
                    <g transform="matrix(6.12323e-17,1,-1.71429,1.0497e-16,1200,-661.828)">
                        <path d="M961.828,0L961.828,700" style="fill:none;stroke:rgb(204,208,218);stroke-width:0.71px;"/>
                    </g>
                    <g transform="matrix(6.12323e-17,1,-1.71429,1.0497e-16,1200,-561.828)">
                        <path d="M961.828,0L961.828,700" style="fill:none;stroke:rgb(204,208,218);stroke-width:0.71px;"/>
                    </g>
                    <g transform="matrix(6.12323e-17,1,-1.71429,1.0497e-16,1200,-461.828)">
                        <path d="M961.828,0L961.828,700" style="fill:none;stroke:rgb(204,208,218);stroke-width:0.71px;"/>
                    </g>
                    <g transform="matrix(6.12323e-17,1,-1.71429,1.0497e-16,1200,-361.828)">
                        <path d="M961.828,0L961.828,700" style="fill:none;stroke:rgb(204,208,218);stroke-width:0.71px;"/>
                    </g>
                </g>
                <g transform="matrix(0.888889,0,0,1,-1254.89,-1471.06)">
                    <rect x="1711.76" y="1671.06" width="300" height="100" style="fill:rgb(204,208,218);"/>
                </g>
                <g transform="matrix(0.666667,0,0,1,-874.503,-1471.06)">
                    <rect x="1711.76" y="1771.06" width="100" height="200" style="fill:rgb(204,208,218);"/>
                </g>
                <g transform="matrix(0.666667,0,0,1,-807.837,-1471.06)">
                    <rect x="1911.76" y="1771.06" width="100" height="200" style="fill:rgb(204,208,218);"/>
                </g>
                <g transform="matrix(0.666667,0,0,1,-864.503,-1556.06)">
                    <circle cx="1696.76" cy="1756.06" r="5" style="fill:rgb(210,15,57);"/>
                </g>
                <g transform="matrix(0.666667,0,0,1,-597.837,-1556.06)">
                    <circle cx="1696.76" cy="1756.06" r="5" style="fill:rgb(210,15,57);"/>
                </g>
                <g transform="matrix(0.666667,0,0,1,-597.837,-1256.06)">
                    <circle cx="1696.76" cy="1756.06" r="5" style="fill:rgb(210,15,57);"/>
                </g>
                <g transform="matrix(0.666667,0,0,1,-664.503,-1256.06)">
                    <circle cx="1696.76" cy="1756.06" r="5" style="fill:rgb(210,15,57);"/>
                </g>
                <g transform="matrix(0.666667,0,0,1,-731.17,-1256.06)">
                    <circle cx="1696.76" cy="1756.06" r="5" style="fill:rgb(210,15,57);"/>
                </g>
                <g transform="matrix(0.666667,0,0,1,-797.837,-1256.06)">
                    <circle cx="1696.76" cy="1756.06" r="5" style="fill:rgb(210,15,57);"/>
                </g>
                <g transform="matrix(0.666667,0,0,1,-864.503,-1356.06)">
                    <circle cx="1696.76" cy="1756.06" r="5" style="fill:rgb(210,15,57);"/>
                </g>
                <g transform="matrix(0.666667,0,0,1,-864.503,-1456.06)">
                    <circle cx="1696.76" cy="1756.06" r="5" style="fill:rgb(210,15,57);"/>
                </g>
                <g transform="matrix(0.666667,0,0,1,-797.837,-1556.06)">
                    <circle cx="1696.76" cy="1756.06" r="5" style="fill:rgb(210,15,57);"/>
                </g>
                <g transform="matrix(0.666667,0,0,1,-731.17,-1556.06)">
                    <circle cx="1696.76" cy="1756.06" r="5" style="fill:rgb(210,15,57);"/>
                </g>
                <g transform="matrix(0.666667,0,0,1,-664.503,-1556.06)">
                    <circle cx="1696.76" cy="1756.06" r="5" style="fill:rgb(210,15,57);"/>
                </g>
                <g transform="matrix(0.666667,0,0,1,-597.837,-1456.06)">
                    <circle cx="1696.76" cy="1756.06" r="5" style="fill:rgb(210,15,57);"/>
                </g>
                <g transform="matrix(0.666667,0,0,1,-597.837,-1356.06)">
                    <circle cx="1696.76" cy="1756.06" r="5" style="fill:rgb(210,15,57);"/>
                </g>
                <g transform="matrix(0.666667,0,0,1,-864.503,-1256.06)">
                    <circle cx="1696.76" cy="1756.06" r="5" style="fill:rgb(210,15,57);"/>
                </g>
                <g transform="matrix(1.33333,0,0,1,-2082.34,-1471.06)">
                    <rect x="1811.76" y="1871.06" width="100" height="100" style="fill:rgb(204,208,218);"/>
                </g>
                <g transform="matrix(0.136752,0,0,1,37.8796,-1486.06)">
                    <path d="M1721.76,1691.06L1721.76,1681.06L2018.44,1681.06L1955.41,1668.13L1989.88,1661.06L2111.76,1686.06L1989.88,1711.06L1955.41,1703.99L2018.44,1691.06L1721.76,1691.06Z" style="fill:rgb(210,15,57);"/>
                </g>
                <g transform="matrix(0.136752,0,0,1,104.546,-1486.06)">
                    <path d="M1721.76,1691.06L1721.76,1681.06L2018.44,1681.06L1955.41,1668.13L1989.88,1661.06L2111.76,1686.06L1989.88,1711.06L1955.41,1703.99L2018.44,1691.06L1721.76,1691.06Z" style="fill:rgb(210,15,57);"/>
                </g>
                <g transform="matrix(0.136752,0,0,1,171.213,-1486.06)">
                    <path d="M1721.76,1691.06L1721.76,1681.06L2018.44,1681.06L1955.41,1668.13L1989.88,1661.06L2111.76,1686.06L1989.88,1711.06L1955.41,1703.99L2018.44,1691.06L1721.76,1691.06Z" style="fill:rgb(210,15,57);"/>
                </g>
                <g transform="matrix(0.136752,0,0,1,237.88,-1486.06)">
                    <path d="M1721.76,1691.06L1721.76,1681.06L2018.44,1681.06L1955.41,1668.13L1989.88,1661.06L2111.76,1686.06L1989.88,1711.06L1955.41,1703.99L2018.44,1691.06L1721.76,1691.06Z" style="fill:rgb(210,15,57);"/>
                </g>
                <g transform="matrix(-0.136752,-2.5121e-17,8.16431e-17,-1,562.12,2186.06)">
                    <path d="M1721.76,1691.06L1721.76,1681.06L2018.44,1681.06L1955.41,1668.13L1989.88,1661.06L2111.76,1686.06L1989.88,1711.06L1955.41,1703.99L2018.44,1691.06L1721.76,1691.06Z" style="fill:rgb(210,15,57);"/>
                </g>
                <g transform="matrix(-0.136752,-2.5121e-17,8.16431e-17,-1,628.787,2186.06)">
                    <path d="M1721.76,1691.06L1721.76,1681.06L2018.44,1681.06L1955.41,1668.13L1989.88,1661.06L2111.76,1686.06L1989.88,1711.06L1955.41,1703.99L2018.44,1691.06L1721.76,1691.06Z" style="fill:rgb(210,15,57);"/>
                </g>
                <g transform="matrix(-0.136752,-2.5121e-17,8.16431e-17,-1,695.454,2186.06)">
                    <path d="M1721.76,1691.06L1721.76,1681.06L2018.44,1681.06L1955.41,1668.13L1989.88,1661.06L2111.76,1686.06L1989.88,1711.06L1955.41,1703.99L2018.44,1691.06L1721.76,1691.06Z" style="fill:rgb(210,15,57);"/>
                </g>
                <g transform="matrix(-0.136752,-2.5121e-17,8.16431e-17,-1,762.12,2186.06)">
                    <path d="M1721.76,1691.06L1721.76,1681.06L2018.44,1681.06L1955.41,1668.13L1989.88,1661.06L2111.76,1686.06L1989.88,1711.06L1955.41,1703.99L2018.44,1691.06L1721.76,1691.06Z" style="fill:rgb(210,15,57);"/>
                </g>
                <g transform="matrix(8.37365e-18,-0.205128,0.666667,6.12323e-17,-857.375,643.181)">
                    <path d="M1721.76,1691.06L1721.76,1681.06L2018.44,1681.06L1955.41,1668.13L1989.88,1661.06L2111.76,1686.06L1989.88,1711.06L1955.41,1703.99L2018.44,1691.06L1721.76,1691.06Z" style="fill:rgb(210,15,57);"/>
                </g>
                <g transform="matrix(8.37365e-18,-0.205128,0.666667,6.12323e-17,-857.375,743.181)">
                    <path d="M1721.76,1691.06L1721.76,1681.06L2018.44,1681.06L1955.41,1668.13L1989.88,1661.06L2111.76,1686.06L1989.88,1711.06L1955.41,1703.99L2018.44,1691.06L1721.76,1691.06Z" style="fill:rgb(210,15,57);"/>
                </g>
                <g transform="matrix(8.37365e-18,-0.205128,0.666667,6.12323e-17,-857.375,843.181)">
                    <path d="M1721.76,1691.06L1721.76,1681.06L2018.44,1681.06L1955.41,1668.13L1989.88,1661.06L2111.76,1686.06L1989.88,1711.06L1955.41,1703.99L2018.44,1691.06L1721.76,1691.06Z" style="fill:rgb(210,15,57);"/>
                </g>
                <g transform="matrix(8.37365e-18,0.205128,-0.666667,6.12323e-17,1657.38,-143.181)">
                    <path d="M1721.76,1691.06L1721.76,1681.06L2018.44,1681.06L1955.41,1668.13L1989.88,1661.06L2111.76,1686.06L1989.88,1711.06L1955.41,1703.99L2018.44,1691.06L1721.76,1691.06Z" style="fill:rgb(210,15,57);"/>
                </g>
                <g transform="matrix(8.37365e-18,0.205128,-0.666667,6.12323e-17,1657.38,-43.1806)">
                    <path d="M1721.76,1691.06L1721.76,1681.06L2018.44,1681.06L1955.41,1668.13L1989.88,1661.06L2111.76,1686.06L1989.88,1711.06L1955.41,1703.99L2018.44,1691.06L1721.76,1691.06Z" style="fill:rgb(210,15,57);"/>
                </g>
                <g transform="matrix(8.37365e-18,0.205128,-0.666667,6.12323e-17,1657.38,56.8194)">
                    <path d="M1721.76,1691.06L1721.76,1681.06L2018.44,1681.06L1955.41,1668.13L1989.88,1661.06L2111.76,1686.06L1989.88,1711.06L1955.41,1703.99L2018.44,1691.06L1721.76,1691.06Z" style="fill:rgb(210,15,57);"/>
                </g>
                <g transform="matrix(0.253968,0,0,1,-50.922,-1326.06)">
                    <path d="M1801.76,1731.06L1801.76,1721.06L1961.51,1721.06L1927.57,1708.13L1946.13,1701.06L2011.76,1726.06L1946.13,1751.06L1927.57,1743.99L1961.51,1731.06L1801.76,1731.06Z" style="fill:rgb(30,102,245);"/>
                </g>
                <g transform="matrix(0.253968,0,0,1,-117.589,-1326.06)">
                    <path d="M1801.76,1731.06L1801.76,1721.06L1961.51,1721.06L1927.57,1708.13L1946.13,1701.06L2011.76,1726.06L1946.13,1751.06L1927.57,1743.99L1961.51,1731.06L1801.76,1731.06Z" style="fill:rgb(30,102,245);"/>
                </g>
                <g transform="matrix(-0.253968,4.66532e-17,-8.16431e-17,-1,850.922,2026.06)">
                    <path d="M1801.76,1731.06L1801.76,1721.06L1961.51,1721.06L1927.57,1708.13L1946.13,1701.06L2011.76,1726.06L1946.13,1751.06L1927.57,1743.99L1961.51,1731.06L1801.76,1731.06Z" style="fill:rgb(30,102,245);"/>
                </g>
                <g transform="matrix(-0.253968,4.66532e-17,-8.16431e-17,-1,917.589,2026.06)">
                    <path d="M1801.76,1731.06L1801.76,1721.06L1961.51,1721.06L1927.57,1708.13L1946.13,1701.06L2011.76,1726.06L1946.13,1751.06L1927.57,1743.99L1961.51,1731.06L1801.76,1731.06Z" style="fill:rgb(30,102,245);"/>
                </g>
                <g transform="matrix(3.03324e-16,0.380952,-0.666667,1.19434e-15,1484.04,-376.383)">
                    <path d="M1801.76,1731.06L1801.76,1721.06L1961.51,1721.06L1927.57,1708.13L1946.13,1701.06L2011.76,1726.06L1946.13,1751.06L1927.57,1743.99L1961.51,1731.06L1801.76,1731.06Z" style="fill:rgb(30,102,245);"/>
                </g>
                <g transform="matrix(-4.66532e-17,-0.380952,0.666667,-1.83697e-16,-684.042,1076.38)">
                    <path d="M1801.76,1731.06L1801.76,1721.06L1961.51,1721.06L1927.57,1708.13L1946.13,1701.06L2011.76,1726.06L1946.13,1751.06L1927.57,1743.99L1961.51,1731.06L1801.76,1731.06Z" style="fill:rgb(30,102,245);"/>
                </g>
                <g transform="matrix(0.666667,0,0,1,-844.503,-1596.06)">
                    <circle cx="1966.76" cy="1896.06" r="5" style="fill:rgb(30,102,245);"/>
                </g>
                <g transform="matrix(0.666667,0,0,1,-977.837,-1596.06)">
                    <circle cx="1966.76" cy="1896.06" r="5" style="fill:rgb(30,102,245);"/>
                </g>
                <g transform="matrix(0.666667,0,0,1,-911.17,-1596.06)">
                    <circle cx="1966.76" cy="1896.06" r="5" style="fill:rgb(30,102,245);"/>
                </g>
                <g transform="matrix(0.666667,0,0,1,-911.17,-1496.06)">
                    <circle cx="1966.76" cy="1896.06" r="5" style="fill:rgb(30,102,245);"/>
                </g>
                <g transform="matrix(0.666667,0,0,1,-977.837,-1496.06)">
                    <circle cx="1966.76" cy="1896.06" r="5" style="fill:rgb(30,102,245);"/>
                </g>
                <g transform="matrix(0.666667,0,0,1,-844.503,-1496.06)">
                    <circle cx="1966.76" cy="1896.06" r="5" style="fill:rgb(30,102,245);"/>
                </g>
            </g>
        </g>
    </g>
</svg>
