<?xml version="1.0" encoding="UTF-8" standalone="no"?>
<!DOCTYPE svg PUBLIC "-//W3C//DTD SVG 1.1//EN" "http://www.w3.org/Graphics/SVG/1.1/DTD/svg11.dtd">
<svg width="100%" height="100%" viewBox="0 0 1200 700" version="1.1" xmlns="http://www.w3.org/2000/svg" xmlns:xlink="http://www.w3.org/1999/xlink" xml:space="preserve" xmlns:serif="http://www.serif.com/" style="fill-rule:evenodd;clip-rule:evenodd;stroke-linecap:round;stroke-linejoin:round;stroke-miterlimit:1.5;">
    <g transform="matrix(1,0,0,1,-1295.4,0)">
        <g id="pixels_to_contours" transform="matrix(1.5,0,0,1,1295.4,0)">
            <rect x="0" y="0" width="800" height="700" style="fill:none;"/>
            <clipPath id="_clip1">
                <rect x="0" y="0" width="800" height="700"/>
            </clipPath>
            <g clip-path="url(#_clip1)">
                <g id="grid" transform="matrix(0.666667,0,0,1,0,0)">
                    <g id="bg" transform="matrix(1.5,0,0,1,0,0)">
                        <rect x="0" y="0" width="800" height="700" style="fill:rgb(239,241,245);"/>
                    </g>
                    <g transform="matrix(1,0,0,1,-861.828,2)">
                        <path d="M961.828,0L961.828,700" style="fill:none;stroke:rgb(204,208,218);stroke-width:1px;"/>
                    </g>
                    <g transform="matrix(1,0,0,1,-761.828,0)">
                        <path d="M961.828,0L961.828,700" style="fill:none;stroke:rgb(204,208,218);stroke-width:1px;"/>
                    </g>
                    <g transform="matrix(1,0,0,1,-661.828,0)">
                        <path d="M961.828,0L961.828,700" style="fill:none;stroke:rgb(204,208,218);stroke-width:1px;"/>
                    </g>
                    <g transform="matrix(1,0,0,1,-561.828,0)">
                        <path d="M961.828,0L961.828,700" style="fill:none;stroke:rgb(204,208,218);stroke-width:1px;"/>
                    </g>
                    <g transform="matrix(1,0,0,1,-461.828,5.68434e-14)">
                        <path d="M961.828,0L961.828,700" style="fill:none;stroke:rgb(204,208,218);stroke-width:1px;"/>
                    </g>
                    <g transform="matrix(1,0,0,1,-361.828,5.68434e-14)">
                        <path d="M961.828,0L961.828,700" style="fill:none;stroke:rgb(204,208,218);stroke-width:1px;"/>
                    </g>
                    <g transform="matrix(1,0,0,1,-261.828,0)">
                        <path d="M961.828,0L961.828,700" style="fill:none;stroke:rgb(204,208,218);stroke-width:1px;"/>
                    </g>
                    <g transform="matrix(1,0,0,1,-161.828,0)">
                        <path d="M961.828,0L961.828,700" style="fill:none;stroke:rgb(204,208,218);stroke-width:1px;"/>
                    </g>
                    <g transform="matrix(1,0,0,1,-61.8281,0)">
                        <path d="M961.828,0L961.828,700" style="fill:none;stroke:rgb(204,208,218);stroke-width:1px;"/>
                    </g>
                    <g transform="matrix(1,0,0,1,38.1719,10)">
                        <path d="M961.828,0L961.828,700" style="fill:none;stroke:rgb(204,208,218);stroke-width:1px;"/>
                    </g>
                    <g transform="matrix(1,0,0,1,138.172,0)">
                        <path d="M961.828,0L961.828,700" style="fill:none;stroke:rgb(204,208,218);stroke-width:1px;"/>
                    </g>
                    <g transform="matrix(6.12323e-17,1,-1.71429,1.0497e-16,1200,-861.828)">
                        <path d="M961.828,0L961.828,700" style="fill:none;stroke:rgb(204,208,218);stroke-width:0.71px;"/>
                    </g>
                    <g transform="matrix(6.12323e-17,1,-1.71429,1.0497e-16,1200,-761.828)">
                        <path d="M961.828,0L961.828,700" style="fill:none;stroke:rgb(204,208,218);stroke-width:0.71px;"/>
                    </g>
                    <g transform="matrix(6.12323e-17,1,-1.71429,1.0497e-16,1200,-661.828)">
                        <path d="M961.828,0L961.828,700" style="fill:none;stroke:rgb(204,208,218);stroke-width:0.71px;"/>
                    </g>
                    <g transform="matrix(6.12323e-17,1,-1.71429,1.0497e-16,1200,-561.828)">
                        <path d="M961.828,0L961.828,700" style="fill:none;stroke:rgb(204,208,218);stroke-width:0.71px;"/>
                    </g>
                    <g transform="matrix(6.12323e-17,1,-1.71429,1.0497e-16,1200,-461.828)">
                        <path d="M961.828,0L961.828,700" style="fill:none;stroke:rgb(204,208,218);stroke-width:0.71px;"/>
                    </g>
                    <g transform="matrix(6.12323e-17,1,-1.71429,1.0497e-16,1200,-361.828)">
                        <path d="M961.828,0L961.828,700" style="fill:none;stroke:rgb(204,208,218);stroke-width:0.71px;"/>
                    </g>
                </g>
                <g transform="matrix(0.666667,0,0,1,-66.6667,0)">
                    <path d="M400,500L600,500L600,600L400,600L400,500ZM300,300L200,300L200,200L300,200L300,100L400,100L400,200L600,200L600,300L400,300L400,500L300,500L300,300Z" style="fill:rgb(204,208,218);"/>
                </g>
                <g transform="matrix(0.666667,0,0,1.05,-659.708,-115)">
                    <path d="M1684.56,400L1684.56,295.238L1784.56,295.238L1784.56,200L1894.56,200L1894.56,295.238L2060.42,295.238L2047.49,282.925L2054.56,276.19L2079.56,300L2054.56,323.81L2047.49,317.075L2060.42,304.762L1884.56,304.762L1884.56,209.524L1794.56,209.524L1794.56,304.762L1694.56,304.762L1694.56,390.476L1794.56,390.476L1794.56,580.952L1884.56,580.952L1884.56,390.476L2084.56,390.476L2084.56,300L2094.56,300L2094.56,400L1894.56,400L1894.56,590.476L1784.56,590.476L1784.56,400L1684.56,400Z" style="fill:rgb(210,15,57);"/>
                </g>
                <g transform="matrix(-0.65,1.19403e-16,-8.16431e-17,-1,996.667,900)">
                    <path d="M615.385,300L615.385,405L400,405L400,295L580.367,295L567.107,282.071L574.359,275L600,300L574.359,325L567.107,317.929L580.367,305L410.256,305L410.256,395L605.128,395L605.128,300L615.385,300Z" style="fill:rgb(30,102,245);"/>
                </g>
                <g transform="matrix(0.592593,0,0,1,-953.815,155)">
                    <path d="M2194.56,200L2194.56,190L2353.03,190L2338.48,177.071L2346.44,170L2374.56,195L2346.44,220L2338.48,212.929L2353.03,200L2194.56,200Z" style="fill:rgb(156,160,176);"/>
                </g>
                <g transform="matrix(0.666667,0,0,1,-551.837,185.349)">
                    <path d="M1684.49,73.616L1668.28,73.616L1665.19,84.651L1655.58,84.651L1670.75,36.962L1684.62,36.962L1699.76,84.651L1687.61,84.651L1684.49,73.616ZM1682.7,67.008L1678.3,51.317L1676.68,44.156L1676.03,44.156L1674.43,51.317L1670.04,67.008L1682.7,67.008Z" style="fill:rgb(210,15,57);fill-rule:nonzero;"/>
                </g>
                <g transform="matrix(0.666667,0,0,1,-453.171,489.194)">
                    <path d="M1687.29,58.153C1688.53,58.479 1689.76,58.956 1691,59.586C1692.24,60.215 1693.34,61.002 1694.32,61.946C1695.3,62.89 1696.09,63.996 1696.7,65.266C1697.3,66.536 1697.61,67.973 1697.61,69.579C1697.61,71.489 1697.12,73.344 1696.16,75.146C1695.19,76.947 1693.79,78.553 1691.96,79.963C1690.13,81.374 1687.87,82.508 1685.19,83.365C1682.51,84.222 1679.44,84.651 1675.99,84.651L1659.88,84.651L1659.88,36.962L1677.72,36.962C1680.65,36.962 1683.23,37.228 1685.45,37.759C1687.67,38.291 1689.53,39.029 1691.02,39.973C1692.5,40.917 1693.62,42.024 1694.38,43.293C1695.14,44.563 1695.52,45.925 1695.52,47.379C1695.52,48.55 1695.3,49.641 1694.86,50.65C1694.41,51.659 1693.82,52.598 1693.07,53.466C1692.32,54.334 1691.44,55.153 1690.45,55.924C1689.45,56.694 1688.39,57.437 1687.29,58.153ZM1671.37,77.554L1676.9,77.554C1678.36,77.554 1679.64,77.348 1680.75,76.936C1681.85,76.524 1682.78,75.965 1683.51,75.259C1684.25,74.554 1684.8,73.751 1685.17,72.851C1685.54,71.95 1685.73,71.011 1685.73,70.035C1685.73,68.841 1685.49,67.821 1685.03,66.975C1684.56,66.129 1683.92,65.434 1683.11,64.892C1682.29,64.349 1681.32,63.953 1680.19,63.703C1679.06,63.454 1677.85,63.329 1676.55,63.329L1671.37,63.329L1671.37,77.554ZM1680.81,56.721C1681.79,56.048 1682.61,55.142 1683.27,54.003C1683.93,52.864 1684.26,51.578 1684.26,50.146C1684.26,49.212 1684.08,48.371 1683.72,47.623C1683.37,46.874 1682.86,46.234 1682.19,45.702C1681.53,45.171 1680.73,44.764 1679.79,44.481C1678.84,44.199 1677.79,44.058 1676.64,44.058L1671.37,44.058L1671.37,56.721L1680.81,56.721Z" style="fill:rgb(30,102,245);fill-rule:nonzero;"/>
                </g>
            </g>
        </g>
    </g>
</svg>
