<?xml version="1.0" encoding="UTF-8" standalone="no"?>
<!DOCTYPE svg PUBLIC "-//W3C//DTD SVG 1.1//EN" "http://www.w3.org/Graphics/SVG/1.1/DTD/svg11.dtd">
<svg width="100%" height="100%" viewBox="0 0 1200 700" version="1.1" xmlns="http://www.w3.org/2000/svg" xmlns:xlink="http://www.w3.org/1999/xlink" xml:space="preserve" xmlns:serif="http://www.serif.com/" style="fill-rule:evenodd;clip-rule:evenodd;stroke-linecap:round;stroke-linejoin:round;stroke-miterlimit:1.5;">
    <g transform="matrix(1,0,0,1,-1284.56,-2.27374e-13)">
        <g id="from_to" transform="matrix(1.5,0,0,1,1284.56,2.27374e-13)">
            <rect x="0" y="0" width="800" height="700" style="fill:none;"/>
            <clipPath id="_clip1">
                <rect x="0" y="0" width="800" height="700"/>
            </clipPath>
            <g clip-path="url(#_clip1)">
                <g id="grid" transform="matrix(0.666667,0,0,1,0,0)">
                    <g id="bg" transform="matrix(1.5,0,0,1,0,0)">
                        <rect x="0" y="0" width="800" height="700" style="fill:rgb(239,241,245);"/>
                    </g>
                    <g transform="matrix(1,0,0,1,-861.828,2)">
                        <path d="M961.828,0L961.828,700" style="fill:none;stroke:rgb(204,208,218);stroke-width:1px;"/>
                    </g>
                    <g transform="matrix(1,0,0,1,-761.828,0)">
                        <path d="M961.828,0L961.828,700" style="fill:none;stroke:rgb(204,208,218);stroke-width:1px;"/>
                    </g>
                    <g transform="matrix(1,0,0,1,-661.828,0)">
                        <path d="M961.828,0L961.828,700" style="fill:none;stroke:rgb(204,208,218);stroke-width:1px;"/>
                    </g>
                    <g transform="matrix(1,0,0,1,-561.828,0)">
                        <path d="M961.828,0L961.828,700" style="fill:none;stroke:rgb(204,208,218);stroke-width:1px;"/>
                    </g>
                    <g transform="matrix(1,0,0,1,-461.828,5.68434e-14)">
                        <path d="M961.828,0L961.828,700" style="fill:none;stroke:rgb(204,208,218);stroke-width:1px;"/>
                    </g>
                    <g transform="matrix(1,0,0,1,-361.828,5.68434e-14)">
                        <path d="M961.828,0L961.828,700" style="fill:none;stroke:rgb(204,208,218);stroke-width:1px;"/>
                    </g>
                    <g transform="matrix(1,0,0,1,-261.828,0)">
                        <path d="M961.828,0L961.828,700" style="fill:none;stroke:rgb(204,208,218);stroke-width:1px;"/>
                    </g>
                    <g transform="matrix(1,0,0,1,-161.828,0)">
                        <path d="M961.828,0L961.828,700" style="fill:none;stroke:rgb(204,208,218);stroke-width:1px;"/>
                    </g>
                    <g transform="matrix(1,0,0,1,-61.8281,0)">
                        <path d="M961.828,0L961.828,700" style="fill:none;stroke:rgb(204,208,218);stroke-width:1px;"/>
                    </g>
                    <g transform="matrix(1,0,0,1,38.1719,10)">
                        <path d="M961.828,0L961.828,700" style="fill:none;stroke:rgb(204,208,218);stroke-width:1px;"/>
                    </g>
                    <g transform="matrix(1,0,0,1,138.172,0)">
                        <path d="M961.828,0L961.828,700" style="fill:none;stroke:rgb(204,208,218);stroke-width:1px;"/>
                    </g>
                    <g transform="matrix(6.12323e-17,1,-1.71429,1.0497e-16,1200,-861.828)">
                        <path d="M961.828,0L961.828,700" style="fill:none;stroke:rgb(204,208,218);stroke-width:0.71px;"/>
                    </g>
                    <g transform="matrix(6.12323e-17,1,-1.71429,1.0497e-16,1200,-761.828)">
                        <path d="M961.828,0L961.828,700" style="fill:none;stroke:rgb(204,208,218);stroke-width:0.71px;"/>
                    </g>
                    <g transform="matrix(6.12323e-17,1,-1.71429,1.0497e-16,1200,-661.828)">
                        <path d="M961.828,0L961.828,700" style="fill:none;stroke:rgb(204,208,218);stroke-width:0.71px;"/>
                    </g>
                    <g transform="matrix(6.12323e-17,1,-1.71429,1.0497e-16,1200,-561.828)">
                        <path d="M961.828,0L961.828,700" style="fill:none;stroke:rgb(204,208,218);stroke-width:0.71px;"/>
                    </g>
                    <g transform="matrix(6.12323e-17,1,-1.71429,1.0497e-16,1200,-461.828)">
                        <path d="M961.828,0L961.828,700" style="fill:none;stroke:rgb(204,208,218);stroke-width:0.71px;"/>
                    </g>
                    <g transform="matrix(6.12323e-17,1,-1.71429,1.0497e-16,1200,-361.828)">
                        <path d="M961.828,0L961.828,700" style="fill:none;stroke:rgb(204,208,218);stroke-width:0.71px;"/>
                    </g>
                </g>
                <g transform="matrix(0.666667,0,0,1,-66.6667,0)">
                    <path d="M400,500L600,500L600,600L400,600L400,500ZM300,300L200,300L200,200L300,200L300,100L400,100L400,200L600,200L600,300L400,300L400,500L300,500L300,300Z" style="fill:rgb(204,208,218);"/>
                </g>
                <g transform="matrix(0.666667,0,0,1.05,-659.708,-115)">
                    <path d="M1684.56,400L1684.56,295.238L1784.56,295.238L1784.56,200L1894.56,200L1894.56,295.238L2060.42,295.238L2047.49,282.925L2054.56,276.19L2079.56,300L2054.56,323.81L2047.49,317.075L2060.42,304.762L1884.56,304.762L1884.56,209.524L1794.56,209.524L1794.56,304.762L1694.56,304.762L1694.56,390.476L1794.56,390.476L1794.56,580.952L1884.56,580.952L1884.56,390.476L2084.56,390.476L2084.56,300L2094.56,300L2094.56,400L1894.56,400L1894.56,590.476L1784.56,590.476L1784.56,400L1684.56,400Z" style="fill:rgb(210,15,57);"/>
                </g>
                <g transform="matrix(-0.65,1.19403e-16,-8.16431e-17,-1,996.667,900)">
                    <path d="M615.385,300L615.385,405L400,405L400,295L580.367,295L567.107,282.071L574.359,275L600,300L574.359,325L567.107,317.929L580.367,305L410.256,305L410.256,395L605.128,395L605.128,300L615.385,300Z" style="fill:rgb(30,102,245);"/>
                </g>
                <g transform="matrix(0.592593,0,0,1,-953.815,155)">
                    <path d="M2194.56,200L2194.56,190L2353.03,190L2338.48,177.071L2346.44,170L2374.56,195L2346.44,220L2338.48,212.929L2353.03,200L2194.56,200Z" style="fill:rgb(156,160,176);"/>
                </g>
                <g transform="matrix(0.666667,0,0,1,-551.837,185.349)">
                    <g transform="matrix(66.6667,0,0,66.6667,1701.38,84.6508)">
                    </g>
                    <text x="1653.95px" y="84.651px" style="font-family:'ProzaLibre-Bold', 'Proza Libre';font-weight:700;font-size:66.667px;fill:rgb(210,15,57);">A</text>
                </g>
                <g transform="matrix(0.666667,0,0,1,-453.171,489.194)">
                    <g transform="matrix(66.6667,0,0,66.6667,1701.03,84.6508)">
                    </g>
                    <text x="1653.95px" y="84.651px" style="font-family:'ProzaLibre-Bold', 'Proza Libre';font-weight:700;font-size:66.667px;fill:rgb(30,102,245);">B</text>
                </g>
            </g>
        </g>
    </g>
</svg>
